<?xml version="1.0" encoding="utf-8"?>
<!-- Generator: Adobe Illustrator 26.0.3, SVG Export Plug-In . SVG Version: 6.00 Build 0)  -->
<svg version="1.0" id="katman_1" xmlns="http://www.w3.org/2000/svg" xmlns:xlink="http://www.w3.org/1999/xlink" x="0px" y="0px"
	 viewBox="0 0 600 450" style="enable-background:new 0 0 600 450;" xml:space="preserve">
<style type="text/css">
	.st0{fill:#FECB33;}
	.st1{fill:#4A494A;}
</style>
<symbol  id="icon-bank" viewBox="-50 -49.9 100.1 99.9">
	<path class="st0" d="M10.8-21.4c-1.9,2.9-5.1,4.8-8.6,4.8c-5.8,0-10.4-4.7-10.4-10.4c0-5.1,3.6-9.3,8.5-10.2
		c-0.1,0.6-0.2,1.2-0.2,1.9c0,1.1,0.1,2.1,0.3,3.1c-0.2,0.3-0.3,0.7-0.3,1.1v8.3c0,1.2,0.9,2.1,2.1,2.1c1.2,0,2.1-0.9,2.1-2.1v-2.4
		C5.9-23.4,8.2-22.1,10.8-21.4z"/>
	<path class="st1" d="M48-4.2c1.2,0,2.1,0.9,2.1,2.1C50-0.9,49.1,0,48,0c-1.4,0-2.7-0.2-4-0.5c-1.1,2.7-2.6,4.7-4,6.3
		c1.1,2.8,1.7,5.7,1.7,8.7c0,8.4-4.5,16.4-12.5,22.3v11c0,1.1-0.9,2.1-2.1,2.1h-8.3c-0.8,0-1.5-0.4-1.9-1.2l-2.5-4.9
		c-9.2,2.5-19.6,2.5-28.8,0l-2.5,4.9c-0.4,0.7-1.1,1.2-1.9,1.2h-8.3c-1.1,0-2.1-0.9-2.1-2.1V37.1l-14.5-9.1
		c-3.9-2.5-6.3-6.7-6.3-11.3s3.7-8.3,8.3-8.3h0.9c1-3.8,3-7.4,5.8-10.7c-1.6-2.4-2.5-5.2-2.5-8.1c0-1.2,0.9-2.1,2.1-2.1
		c3.2,0,6.3,1.1,8.9,3c5.5-3.4,12.1-5.7,19.1-6.7c-3-2.7-5-6.6-5-10.9c0-7.8,6.2-14.2,13.9-14.5c2.3-4.9,7.3-8.3,13.1-8.3
		c8,0,14.6,6.5,14.6,14.6c0,7.8-6.2,14.2-14,14.5c-1,2.1-2.5,4-4.3,5.4c12.1,2.5,22,8.9,27,17.3c0.7-1,1.5-2.2,2.1-3.6
		c-3.9-1.9-6.7-5.2-6.7-8.6c0-3.5,2.8-6.2,6.2-6.2c3.4,0,6.2,2.8,6.2,6.2c0,2.2-0.2,4.2-0.6,6C46.1-4.2,47-4.1,48-4.2z M41.3-5.9
		c0.3-1.4,0.4-2.9,0.4-4.5c0-1.2-0.9-2.1-2.1-2.1c-1.1,0-2.1,0.9-2.1,2.1C37.5-9.1,39-7.3,41.3-5.9z M25.9,34.1
		c7.5-5.2,11.6-12.1,11.6-19.5c0-14.9-16.8-27.1-37.5-27.1c-9.5,0-18.6,2.6-25.6,7.3c-0.8,0.6-1.9,0.5-2.6-0.2
		c-1.4-1.3-3.1-2.2-4.9-2.7c0.4,1.6,1.2,3.2,2.4,4.5c0.7,0.8,0.7,2-0.1,2.8c-3.3,3.5-5.4,7.5-6.2,11.6c-0.2,1-1,1.7-2,1.7h-2.6
		c-2.3,0-4.2,1.9-4.2,4.2c0,3.2,1.6,6.1,4.3,7.8l15.5,9.7c0.6,0.4,1,1,1,1.8V46h5l2.7-5.3c0.5-0.9,1.5-1.4,2.5-1.1
		c9.4,3,20.3,3,29.8,0c1-0.3,2,0.1,2.5,1.1l2.7,5.3h5V36C24.9,35.2,25.3,34.5,25.9,34.1z M24.9-35.5c0-5.7-4.7-10.4-10.4-10.4
		c-5.8,0-10.4,4.7-10.4,10.4c0,5.7,4.7,10.4,10.4,10.4C20.4-25,24.9-29.7,24.9-35.5z M2.1-16.6c3.5,0,6.8-1.9,8.6-4.8
		c-2.5-0.7-4.8-2-6.6-3.8v2.3c0,1.2-0.9,2.1-2.1,2.1c-1.2,0-2.1-0.9-2.1-2.1v-8.3c0-0.4,0.2-0.8,0.3-1.1c-0.2-1-0.3-2-0.3-3.1
		c0-0.6,0.1-1.2,0.2-1.9c-4.9,0.9-8.5,5.1-8.5,10.2C-8.3-21.4-3.6-16.6,2.1-16.6z"/>
	<path class="st0" d="M14.6-45.8c5.7,0,10.4,4.7,10.4,10.4S20.3-25,14.6-25C8.8-25,4.2-29.7,4.2-35.5S8.9-45.8,14.6-45.8z
		 M16.7-31.2v-8.3c0-1.2-0.9-2.1-2.1-2.1c-1.2,0-2.1,0.9-2.1,2.1v8.3c0,1.2,0.9,2.1,2.1,2.1S16.7-30,16.7-31.2z"/>
	<path class="st1" d="M16.7-39.5v8.3c0,1.2-0.9,2.1-2.1,2.1c-1.2,0-2.1-0.9-2.1-2.1v-8.3c0-1.2,0.9-2.1,2.1-2.1S16.7-40.8,16.7-39.5
		z M15.3-6.2c1.1,0.4,1.7,1.5,1.3,2.6c-0.3,0.9-1.1,1.4-2,1.4c-0.2,0-0.4,0-0.7-0.1C6-4.8-6.1-4.8-14-2.2c-1.1,0.4-2.3-0.2-2.6-1.3
		c-0.4-1.1,0.2-2.3,1.3-2.6c4.4-1.4,9.8-2.2,15.2-2.2C5.5-8.2,10.9-7.5,15.3-6.2z M-29.1,4.2c2.3,0,4.2,1.9,4.2,4.2
		s-1.9,4.2-4.2,4.2s-4.2-1.9-4.2-4.2S-31.5,4.2-29.1,4.2z"/>
</symbol>
<use xlink:href="#icon-bank"  width="100.1" height="99.9" x="-50" y="-49.9" transform="matrix(2.9021 0 0 2.9021 300 225)" style="overflow:visible;"/>
</svg>
